<svg xmlns="http://www.w3.org/2000/svg" xmlns:xlink="http://www.w3.org/1999/xlink" width="500" zoomAndPan="magnify" viewBox="0 0 375 374.999991" height="500" preserveAspectRatio="xMidYMid meet" version="1.0"><defs><clipPath id="id1"><path d="M 1.804688 1 L 373.054688 1 L 373.054688 374 L 1.804688 374 Z M 1.804688 1 " clip-rule="nonzero"/></clipPath></defs><rect x="-37.5" width="450" fill="rgb(100%, 100%, 100%)" y="-37.499999" height="449.999989" fill-opacity="1"/><rect x="-37.5" width="450" fill="rgb(100%, 100%, 100%)" y="-37.499999" height="449.999989" fill-opacity="1"/><rect x="-37.5" width="450" fill="rgb(100%, 100%, 100%)" y="-37.499999" height="449.999989" fill-opacity="1"/><rect x="-37.5" width="450" fill="rgb(100%, 100%, 100%)" y="-37.499999" height="449.999989" fill-opacity="1"/><rect x="-37.5" width="450" fill="rgb(100%, 100%, 100%)" y="-37.499999" height="449.999989" fill-opacity="1"/><g clip-path="url(#id1)"><path fill="rgb(81.959534%, 28.62854%, 0%)" d="M 187.429688 1.804688 C 138.195312 1.804688 90.984375 21.367188 56.171875 56.195312 C 21.359375 91.019531 1.804688 138.25 1.804688 187.5 C 1.804688 236.75 21.359375 283.980469 56.171875 318.804688 C 90.984375 353.632812 138.195312 373.195312 187.429688 373.195312 C 236.660156 373.195312 283.875 353.632812 318.683594 318.804688 C 353.496094 283.980469 373.054688 236.75 373.054688 187.5 C 373.054688 138.25 353.496094 91.019531 318.683594 56.195312 C 283.875 21.367188 236.660156 1.804688 187.429688 1.804688 Z M 187.429688 7.375 C 211.074219 7.375 234.488281 12.035156 256.332031 21.085938 C 278.175781 30.136719 298.027344 43.40625 314.746094 60.132812 C 331.464844 76.855469 344.730469 96.714844 353.777344 118.566406 C 362.828125 140.421875 367.484375 163.84375 367.484375 187.5 C 367.484375 211.152344 362.828125 234.574219 353.777344 256.429688 C 344.730469 278.28125 331.464844 298.140625 314.746094 314.863281 C 298.027344 331.589844 278.175781 344.859375 256.332031 353.910156 C 234.488281 362.960938 211.074219 367.621094 187.429688 367.621094 C 139.675781 367.621094 93.875 348.644531 60.109375 314.863281 C 26.34375 281.085938 7.371094 235.269531 7.371094 187.5 C 7.371094 139.726562 26.34375 93.910156 60.109375 60.132812 C 93.875 26.351562 139.675781 7.375 187.429688 7.375 Z M 187.429688 7.375 " fill-opacity="1" fill-rule="evenodd"/></g><path fill="rgb(81.959534%, 28.62854%, 0%)" d="M 97.679688 199.769531 C 97.679688 196.316406 97.101562 193.082031 95.953125 190.070312 C 94.890625 187.0625 93.339844 184.449219 91.304688 182.234375 C 89.269531 180.019531 86.789062 178.292969 83.867188 177.054688 C 81.035156 175.722656 77.804688 175.058594 74.171875 175.058594 C 70.542969 175.058594 67.222656 175.722656 64.214844 177.054688 C 61.203125 178.292969 58.589844 180.019531 56.378906 182.234375 C 54.164062 184.449219 52.4375 187.0625 51.199219 190.070312 C 49.960938 193.082031 49.339844 196.316406 49.339844 199.769531 C 49.339844 203.222656 49.960938 206.457031 51.199219 209.46875 C 52.4375 212.480469 54.164062 215.09375 56.378906 217.304688 C 58.589844 219.519531 61.203125 221.292969 64.214844 222.621094 C 67.222656 223.859375 70.542969 224.480469 74.171875 224.480469 C 77.804688 224.480469 81.035156 223.859375 83.867188 222.621094 C 86.789062 221.292969 89.269531 219.519531 91.304688 217.304688 C 93.339844 215.09375 94.890625 212.480469 95.953125 209.46875 C 97.101562 206.457031 97.679688 203.222656 97.679688 199.769531 Z M 40.972656 130.421875 L 49.738281 130.421875 L 49.738281 179.046875 L 50.003906 179.046875 C 51.421875 176.921875 53.101562 175.105469 55.050781 173.597656 C 56.996094 172.09375 59.035156 170.851562 61.160156 169.878906 C 63.285156 168.90625 65.453125 168.195312 67.664062 167.753906 C 69.96875 167.308594 72.136719 167.089844 74.171875 167.089844 C 79.042969 167.089844 83.46875 167.929688 87.453125 169.613281 C 91.527344 171.207031 95.023438 173.464844 97.945312 176.386719 C 100.867188 179.3125 103.125 182.765625 104.71875 186.75 C 106.398438 190.738281 107.242188 195.078125 107.242188 199.769531 C 107.242188 204.464844 106.398438 208.804688 104.71875 212.789062 C 103.125 216.773438 100.867188 220.230469 97.945312 223.152344 C 95.023438 226.074219 91.527344 228.378906 87.453125 230.058594 C 83.46875 231.65625 79.042969 232.453125 74.171875 232.453125 C 72.136719 232.453125 69.96875 232.230469 67.664062 231.789062 C 65.453125 231.34375 63.285156 230.636719 61.160156 229.660156 C 59.035156 228.6875 56.996094 227.449219 55.050781 225.941406 C 53.101562 224.4375 51.421875 222.621094 50.003906 220.496094 L 49.738281 220.496094 L 49.738281 230.859375 L 40.972656 230.859375 Z M 40.972656 130.421875 " fill-opacity="1" fill-rule="nonzero"/><path fill="rgb(81.959534%, 28.62854%, 0%)" d="M 135.269531 130.421875 L 144.03125 130.421875 L 144.03125 230.859375 L 135.269531 230.859375 Z M 135.269531 130.421875 " fill-opacity="1" fill-rule="nonzero"/><path fill="rgb(81.959534%, 28.62854%, 0%)" d="M 189.046875 144.769531 C 189.046875 146.628906 188.382812 148.179688 187.054688 149.417969 C 185.726562 150.570312 184.265625 151.148438 182.671875 151.148438 C 181.078125 151.148438 179.617188 150.570312 178.289062 149.417969 C 176.960938 148.179688 176.296875 146.628906 176.296875 144.769531 C 176.296875 142.910156 176.960938 141.40625 178.289062 140.253906 C 179.617188 139.011719 181.078125 138.394531 182.671875 138.394531 C 184.265625 138.394531 185.726562 139.011719 187.054688 140.253906 C 188.382812 141.40625 189.046875 142.910156 189.046875 144.769531 Z M 187.054688 230.859375 L 178.289062 230.859375 L 178.289062 168.683594 L 187.054688 168.683594 Z M 187.054688 230.859375 " fill-opacity="1" fill-rule="nonzero"/><path fill="rgb(81.959534%, 28.62854%, 0%)" d="M 220.246094 188.078125 C 220.246094 185.335938 220.160156 182.542969 219.980469 179.710938 C 219.894531 176.875 219.804688 173.199219 219.714844 168.683594 L 228.347656 168.683594 L 228.347656 180.242188 L 228.613281 180.242188 C 229.234375 178.558594 230.117188 176.964844 231.269531 175.457031 C 232.421875 173.863281 233.792969 172.449219 235.386719 171.207031 C 237.066406 169.96875 238.972656 168.992188 241.097656 168.285156 C 243.308594 167.488281 245.789062 167.089844 248.535156 167.089844 C 251.011719 167.089844 253.183594 167.355469 255.039062 167.886719 L 253.3125 176.519531 C 252.164062 176.078125 250.480469 175.855469 248.269531 175.855469 C 244.902344 175.855469 242.027344 176.519531 239.636719 177.851562 C 237.246094 179.089844 235.253906 180.726562 233.660156 182.765625 C 232.066406 184.714844 230.871094 186.839844 230.074219 189.140625 C 229.367188 191.445312 229.011719 193.660156 229.011719 195.785156 L 229.011719 230.859375 L 220.246094 230.859375 Z M 220.246094 188.078125 " fill-opacity="1" fill-rule="nonzero"/><path fill="rgb(81.959534%, 28.62854%, 0%)" d="M 325.449219 199.769531 C 325.449219 196.316406 324.871094 193.082031 323.722656 190.074219 C 322.660156 187.0625 321.109375 184.449219 319.074219 182.234375 C 317.035156 180.019531 314.558594 178.292969 311.636719 177.054688 C 308.804688 175.722656 305.570312 175.058594 301.941406 175.058594 C 298.3125 175.058594 295.035156 175.722656 292.113281 177.054688 C 289.28125 178.292969 286.847656 180.019531 284.8125 182.234375 C 282.863281 184.449219 281.3125 187.0625 280.164062 190.074219 C 279.101562 193.082031 278.570312 196.316406 278.570312 199.769531 C 278.570312 203.222656 279.101562 206.457031 280.164062 209.46875 C 281.3125 212.480469 282.863281 215.09375 284.8125 217.308594 C 286.847656 219.519531 289.28125 221.292969 292.113281 222.621094 C 295.035156 223.859375 298.3125 224.480469 301.941406 224.480469 C 305.570312 224.480469 308.804688 223.859375 311.636719 222.621094 C 314.558594 221.292969 317.035156 219.519531 319.074219 217.308594 C 321.109375 215.09375 322.660156 212.480469 323.722656 209.46875 C 324.871094 206.457031 325.449219 203.222656 325.449219 199.769531 Z M 335.007812 199.769531 C 335.007812 204.464844 334.167969 208.804688 332.488281 212.789062 C 330.890625 216.773438 328.636719 220.230469 325.714844 223.152344 C 322.792969 226.074219 319.292969 228.378906 315.222656 230.058594 C 311.238281 231.65625 306.8125 232.453125 301.941406 232.453125 C 297.160156 232.453125 292.734375 231.65625 288.660156 230.058594 C 284.679688 228.378906 281.226562 226.074219 278.304688 223.152344 C 275.382812 220.230469 273.078125 216.773438 271.398438 212.789062 C 269.804688 208.804688 269.007812 204.464844 269.007812 199.769531 C 269.007812 195.078125 269.804688 190.738281 271.398438 186.75 C 273.078125 182.765625 275.382812 179.3125 278.304688 176.386719 C 281.226562 173.464844 284.679688 171.207031 288.660156 169.613281 C 292.734375 167.929688 297.160156 167.089844 301.941406 167.089844 C 306.8125 167.089844 311.238281 167.929688 315.222656 169.613281 C 319.292969 171.207031 322.792969 173.464844 325.714844 176.386719 C 328.636719 179.3125 330.890625 182.765625 332.488281 186.75 C 334.167969 190.738281 335.007812 195.078125 335.007812 199.769531 Z M 335.007812 199.769531 " fill-opacity="1" fill-rule="nonzero"/></svg>