<svg width="103" height="104" viewBox="0 0 103 104" fill="none" xmlns="http://www.w3.org/2000/svg">
<path fill-rule="evenodd" clip-rule="evenodd" d="M51.5 0.5C37.8414 0.5 24.7421 5.92588 15.084 15.584C5.42588 25.2421 0 38.3414 0 52C0 65.6586 5.42588 78.7579 15.084 88.416C24.7421 98.0741 37.8414 103.5 51.5 103.5C65.1586 103.5 78.2579 98.0741 87.916 88.416C97.5741 78.7579 103 65.6586 103 52C103 38.3414 97.5741 25.2421 87.916 15.584C78.2579 5.92588 65.1586 0.5 51.5 0.5ZM51.5 2.04467C58.0602 2.04467 64.5561 3.33679 70.6169 5.84726C76.6777 8.35772 82.1847 12.0374 86.8234 16.6761C91.4621 21.3148 95.1418 26.8218 97.6523 32.8826C100.163 38.9434 101.455 45.4394 101.455 51.9995C101.455 58.5597 100.163 65.0556 97.6523 71.1164C95.1418 77.1772 91.4621 82.6842 86.8234 87.3229C82.1847 91.9617 76.6777 95.6413 70.6169 98.1518C64.5561 100.662 58.0602 101.954 51.5 101.954C38.2512 101.954 25.5449 96.6913 16.1766 87.3229C6.80824 77.9546 1.54516 65.2484 1.54516 51.9995C1.54516 38.7507 6.80824 26.0445 16.1766 16.6761C25.5449 7.30775 38.2512 2.04467 51.5 2.04467Z" fill="#D14900"/>
<path d="M26.6 55.403C26.6 54.445 26.4403 53.5485 26.121 52.7133C25.8262 51.8782 25.3964 51.1536 24.8314 50.5395C24.2665 49.9255 23.5787 49.4465 22.7682 49.1026C21.9822 48.7342 21.0856 48.5499 20.0785 48.5499C19.0714 48.5499 18.1503 48.7342 17.3152 49.1026C16.4801 49.4465 15.7555 49.9255 15.1414 50.5395C14.5273 51.1536 14.0483 51.8782 13.7044 52.7133C13.3606 53.5485 13.1886 54.445 13.1886 55.403C13.1886 56.3609 13.3606 57.2575 13.7044 58.0926C14.0483 58.9278 14.5273 59.6524 15.1414 60.2664C15.7555 60.8805 16.4801 61.3718 17.3152 61.7402C18.1503 62.0841 19.0714 62.256 20.0785 62.256C21.0856 62.256 21.9822 62.0841 22.7682 61.7402C23.5787 61.3718 24.2665 60.8805 24.8314 60.2664C25.3964 59.6524 25.8262 58.9278 26.121 58.0926C26.4403 57.2575 26.6 56.3609 26.6 55.403ZM10.8674 36.1702H13.2992V49.6553H13.3728C13.7659 49.0658 14.2326 48.5622 14.7729 48.1446C15.3133 47.7271 15.8783 47.3832 16.4678 47.113C17.0573 46.8428 17.6591 46.6463 18.2731 46.5235C18.9118 46.4007 19.5136 46.3393 20.0785 46.3393C21.4295 46.3393 22.6576 46.5726 23.763 47.0393C24.8929 47.4814 25.8631 48.1078 26.6737 48.9184C27.4842 49.729 28.1106 50.6869 28.5527 51.7922C29.0194 52.8976 29.2528 54.1012 29.2528 55.403C29.2528 56.7048 29.0194 57.9084 28.5527 59.0137C28.1106 60.1191 27.4842 61.077 26.6737 61.8876C25.8631 62.6982 24.8929 63.3368 23.763 63.8035C22.6576 64.2456 21.4295 64.4667 20.0785 64.4667C19.5136 64.4667 18.9118 64.4053 18.2731 64.2825C17.6591 64.1597 17.0573 63.9632 16.4678 63.693C15.8783 63.4228 15.3133 63.0789 14.7729 62.6613C14.2326 62.2438 13.7659 61.7402 13.3728 61.1507H13.2992V64.0246H10.8674V36.1702Z" fill="#D14900"/>
<path d="M39.4603 64.0246H37.0286V36.1702H39.4603V64.0246Z" fill="#D14900"/>
<path d="M51.9487 40.1494C51.9487 40.6653 51.7645 41.0951 51.396 41.439C51.0276 41.7583 50.6223 41.918 50.1802 41.918C49.738 41.918 49.3327 41.7583 48.9643 41.439C48.5958 41.0951 48.4116 40.6653 48.4116 40.1494C48.4116 39.6336 48.5958 39.2161 48.9643 38.8967C49.3327 38.5529 49.738 38.3809 50.1802 38.3809C50.6223 38.3809 51.0276 38.5529 51.396 38.8967C51.7645 39.2161 51.9487 39.6336 51.9487 40.1494ZM51.396 64.0246H48.9643V46.7814H51.396V64.0246Z" fill="#D14900"/>
<path d="M60.6054 52.1607C60.6054 51.3993 60.5808 50.6255 60.5317 49.8395C60.5071 49.0535 60.4826 48.0341 60.458 46.7814H62.8529V49.9869H62.9266C63.0985 49.5202 63.3441 49.0781 63.6635 48.6605C63.9828 48.2184 64.3635 47.8254 64.8056 47.4815C65.2723 47.1376 65.8004 46.8674 66.3899 46.6709C67.004 46.4498 67.6918 46.3393 68.4532 46.3393C69.141 46.3393 69.7428 46.413 70.2586 46.5604L69.7796 48.9552C69.4603 48.8324 68.9936 48.771 68.3795 48.771C67.4462 48.771 66.6479 48.9552 65.9847 49.3237C65.3215 49.6676 64.7688 50.122 64.3267 50.6869C63.8845 51.2273 63.5529 51.8168 63.3319 52.4555C63.1354 53.0941 63.0371 53.7082 63.0371 54.2977V64.0246H60.6054V52.1607Z" fill="#D14900"/>
<path d="M89.7924 55.403C89.7924 54.4451 89.6327 53.5485 89.3134 52.7134C89.0187 51.8782 88.5888 51.1536 88.0239 50.5395C87.4589 49.9255 86.7712 49.4465 85.9606 49.1026C85.1746 48.7342 84.278 48.55 83.271 48.55C82.2639 48.55 81.355 48.7342 80.5445 49.1026C79.7585 49.4465 79.083 49.9255 78.518 50.5395C77.9776 51.1536 77.5478 51.8782 77.2285 52.7134C76.9337 53.5485 76.7863 54.4451 76.7863 55.403C76.7863 56.361 76.9337 57.2575 77.2285 58.0926C77.5478 58.9278 77.9776 59.6524 78.518 60.2665C79.083 60.8805 79.7585 61.3718 80.5445 61.7402C81.355 62.0841 82.2639 62.2561 83.271 62.2561C84.278 62.2561 85.1746 62.0841 85.9606 61.7402C86.7712 61.3718 87.4589 60.8805 88.0239 60.2665C88.5888 59.6524 89.0187 58.9278 89.3134 58.0926C89.6327 57.2575 89.7924 56.361 89.7924 55.403ZM92.4452 55.403C92.4452 56.7048 92.2119 57.9084 91.7452 59.0138C91.303 60.1191 90.6767 61.077 89.8661 61.8876C89.0555 62.6982 88.0853 63.3368 86.9554 63.8035C85.8501 64.2457 84.6219 64.4667 83.271 64.4667C81.9446 64.4667 80.7164 64.2457 79.5865 63.8035C78.4812 63.3368 77.5232 62.6982 76.7127 61.8876C75.9021 61.077 75.2634 60.1191 74.7967 59.0138C74.3546 57.9084 74.1335 56.7048 74.1335 55.403C74.1335 54.1012 74.3546 52.8976 74.7967 51.7923C75.2634 50.6869 75.9021 49.729 76.7127 48.9184C77.5232 48.1078 78.4812 47.4815 79.5865 47.0393C80.7164 46.5726 81.9446 46.3393 83.271 46.3393C84.6219 46.3393 85.8501 46.5726 86.9554 47.0393C88.0853 47.4815 89.0555 48.1078 89.8661 48.9184C90.6767 49.729 91.303 50.6869 91.7452 51.7923C92.2119 52.8976 92.4452 54.1012 92.4452 55.403Z" fill="#D14900"/>
</svg>
