<?xml version="1.0" encoding="UTF-8" standalone="no"?>
<!-- Created with Inkscape (http://www.inkscape.org/) -->

<svg
   width="529.28003"
   height="529.28003"
   version="1.1"
   viewBox="0 0 529.28 529.28"
   id="svg20"
   sodipodi:docname="bliro_logo_large_test_inkscape_working_copy.svg"
   inkscape:version="1.1.1 (c3084ef, 2021-09-22)"
   xmlns:inkscape="http://www.inkscape.org/namespaces/inkscape"
   xmlns:sodipodi="http://sodipodi.sourceforge.net/DTD/sodipodi-0.dtd"
   xmlns="http://www.w3.org/2000/svg"
   xmlns:svg="http://www.w3.org/2000/svg">
  <defs
     id="defs24" />
  <sodipodi:namedview
     id="namedview22"
     pagecolor="#ffffff"
     bordercolor="#999999"
     borderopacity="1"
     inkscape:pageshadow="0"
     inkscape:pageopacity="0"
     inkscape:pagecheckerboard="0"
     showgrid="false"
     inkscape:zoom="1.1295999"
     inkscape:cx="322.68062"
     inkscape:cy="517.88248"
     inkscape:window-width="1296"
     inkscape:window-height="750"
     inkscape:window-x="0"
     inkscape:window-y="25"
     inkscape:window-maximized="0"
     inkscape:current-layer="svg20"
     fit-margin-top="0"
     fit-margin-left="0"
     fit-margin-right="0"
     fit-margin-bottom="0" />
  <g
     id="g18">
    <g
       fill="#000000"
       font-family="sans-serif"
       font-size="40px"
       id="g8">
      <text
         style="line-height:1.25;white-space:pre;shape-inside:url(#rect6872)"
         xml:space="preserve"
         id="text2" />
      <text
         style="line-height:1.25;white-space:pre;shape-inside:url(#rect7934)"
         xml:space="preserve"
         id="text4" />
      <text
         style="line-height:1.25;white-space:pre;shape-inside:url(#rect9392)"
         xml:space="preserve"
         id="text6" />
    </g>
    <g
       fill="#db6516"
       id="g16">
      <path
         d="M 264.64,0 A 264.64,264.64 0 0 0 0,264.64 264.64,264.64 0 0 0 264.64,529.28 264.64,264.64 0 0 0 529.28,264.64 264.64,264.64 0 0 0 264.64,0 Z m 0,7.9375 a 256.7,256.7 0 0 1 256.7,256.7 256.7,256.7 0 0 1 -256.7,256.7 256.7,256.7 0 0 1 -256.7,-256.7 256.7,256.7 0 0 1 256.7,-256.7 z"
         fill-rule="evenodd"
         stroke-width="1.1247"
         id="path10" />
      <g
         aria-label="bliro"
         id="text14"
         style="font-size:189.33px;line-height:1.25;letter-spacing:15.85px">
        <path
           d="m 136.68849,282.12692 q 0,-7.38387 -2.46129,-13.82109 -2.27196,-6.43722 -6.62655,-11.17047 -4.35459,-4.73325 -10.60248,-7.38387 -6.05856,-2.83995 -13.82109,-2.83995 -7.762528,0 -14.199748,2.83995 -6.43722,2.65062 -11.17047,7.38387 -4.73325,4.73325 -7.38387,11.17047 -2.65062,6.43722 -2.65062,13.82109 0,7.38387 2.65062,13.82109 2.65062,6.43723 7.38387,11.17048 4.73325,4.73325 11.17047,7.5732 6.43722,2.65062 14.199748,2.65062 7.76253,0 13.82109,-2.65062 6.24789,-2.83995 10.60248,-7.5732 4.35459,-4.73325 6.62655,-11.17048 2.46129,-6.43722 2.46129,-13.82109 z M 55.844582,183.29666 h 12.49578 v 69.29478 h 0.37866 q 3.02928,-4.54392 7.19454,-7.76253 4.16526,-3.21861 8.70918,-5.30124 4.54392,-2.08263 9.27717,-3.02928 4.922581,-0.94665 9.277168,-0.94665 10.41315,0 18.933,3.59727 8.70918,3.40794 14.95707,9.65583 6.24789,6.24789 9.65583,14.76774 3.59727,8.51985 3.59727,18.55434 0,10.03449 -3.59727,18.55435 -3.40794,8.51985 -9.65583,14.76774 -6.24789,6.24789 -14.95707,9.84516 -8.51985,3.40794 -18.933,3.40794 -4.354587,0 -9.277168,-0.94665 -4.73325,-0.94665 -9.27717,-3.02928 -4.54392,-2.08263 -8.70918,-5.30124 -4.16526,-3.21861 -7.19454,-7.76253 h -0.37866 v 14.76774 h -12.49578 z"
           style="font-family:Avenir"
           id="path5931" />
        <path
           d="M 202.77307,326.43015 H 190.27729 V 183.29666 h 12.49578 z"
           style="font-family:Avenir"
           id="path5933" />
        <path
           d="m 266.94659,203.7443 q 0,3.97593 -2.83995,6.62655 -2.83995,2.46129 -6.24789,2.46129 -3.40794,0 -6.24789,-2.46129 -2.83995,-2.65062 -2.83995,-6.62655 0,-3.97593 2.83995,-6.43722 2.83995,-2.65062 6.24789,-2.65062 3.40794,0 6.24789,2.65062 2.83995,2.46129 2.83995,6.43722 z m -2.83995,122.68585 H 251.61086 V 237.8237 h 12.49578 z"
           style="font-family:Avenir"
           id="path5935" />
        <path
           d="m 311.4298,265.46588 q 0,-5.86923 -0.37866,-11.92779 -0.18933,-6.05856 -0.37866,-15.71439 h 12.30645 v 16.47171 h 0.37866 q 1.32531,-3.59727 3.7866,-6.81588 2.46129,-3.40794 5.86923,-6.05856 3.59727,-2.65062 8.14119,-4.16526 4.73325,-1.70397 10.60248,-1.70397 5.30124,0 9.27717,1.13598 l -2.46129,12.30645 q -2.46129,-0.94665 -7.19454,-0.94665 -7.19454,0 -12.30645,2.83995 -5.11191,2.65062 -8.51985,7.00521 -3.40794,4.16526 -5.11191,9.08784 -1.51464,4.92258 -1.51464,9.4665 v 49.98313 H 311.4298 Z"
           style="font-family:Avenir"
           id="path5937" />
        <path
           d="m 461.41124,282.12692 c 0,-4.92258 -0.82043,-9.52961 -2.46129,-13.82109 -1.51464,-4.29148 -3.72349,-8.01497 -6.62655,-11.17047 -2.90306,-3.1555 -6.43722,-5.61679 -10.60248,-7.38387 -4.03904,-1.8933 -8.64607,-2.83995 -13.82109,-2.83995 -5.17502,0 -9.84516,0.94665 -14.01042,2.83995 -4.03904,1.76708 -7.51009,4.22837 -10.41315,7.38387 -2.77684,3.1555 -4.98569,6.87899 -6.62655,11.17047 -1.51464,4.29148 -2.27196,8.89851 -2.27196,13.82109 0,4.92258 0.75732,9.52961 2.27196,13.82109 1.64086,4.29149 3.84971,8.01498 6.62655,11.17048 2.90306,3.1555 6.37411,5.6799 10.41315,7.5732 4.16526,1.76708 8.8354,2.65062 14.01042,2.65062 5.17502,0 9.78205,-0.88354 13.82109,-2.65062 4.16526,-1.8933 7.69942,-4.4177 10.60248,-7.5732 2.90306,-3.1555 5.11191,-6.87899 6.62655,-11.17048 1.64086,-4.29148 2.46129,-8.89851 2.46129,-13.82109 z m 13.63176,0 c 0,6.68966 -1.19909,12.87444 -3.59727,18.55435 -2.27196,5.6799 -5.49057,10.60248 -9.65583,14.76774 -4.16526,4.16526 -9.15095,7.44698 -14.95707,9.84516 -5.6799,2.27196 -11.9909,3.40794 -18.933,3.40794 -6.81588,0 -13.12688,-1.13598 -18.933,-3.40794 -5.6799,-2.39818 -10.60248,-5.6799 -14.76774,-9.84516 -4.16526,-4.16526 -7.44698,-9.08784 -9.84516,-14.76774 -2.27196,-5.67991 -3.40794,-11.86469 -3.40794,-18.55435 0,-6.68966 1.13598,-12.87444 3.40794,-18.55434 2.39818,-5.6799 5.6799,-10.60248 9.84516,-14.76774 4.16526,-4.16526 9.08784,-7.38387 14.76774,-9.65583 5.80612,-2.39818 12.11712,-3.59727 18.933,-3.59727 6.9421,0 13.2531,1.19909 18.933,3.59727 5.80612,2.27196 10.79181,5.49057 14.95707,9.65583 4.16526,4.16526 7.38387,9.08784 9.65583,14.76774 2.39818,5.6799 3.59727,11.86468 3.59727,18.55434 z"
           style="font-family:Avenir"
           id="path5939"
           sodipodi:nodetypes="scscscccscccscscsscscscscscscscscs" />
      </g>
    </g>
  </g>
</svg>
